<?xml version="1.0" encoding="UTF-8"?>
<svg xmlns="http://www.w3.org/2000/svg" version="1.1" viewBox="0 0 1040.37 818.79">
  <!-- Generator: Adobe Illustrator 29.2.1, SVG Export Plug-In . SVG Version: 2.1.0 Build 116)  -->
  <defs>
    <style>
      .st0 {
        fill: #b7a5a5;
      }
    </style>
  </defs>
  <g id="arc">
    <g id="Layer_19">
      <path class="st0" d="M790.42,421.95c0,24.76-3.01,49.05-8.83,72.48.34.03.67.08.99.16,5.84-23.48,8.84-47.83,8.84-72.64,0-80.02-31.24-155.25-87.96-211.84s-132.14-87.75-212.36-87.75-155.64,31.16-212.36,87.75-87.96,131.82-87.96,211.84c0,20.78,2.12,41.23,6.24,61.12.34-.02.69,0,1.03.05-4.13-19.9-6.27-40.37-6.27-61.17,0-79.75,31.13-154.74,87.67-211.13,56.53-56.4,131.7-87.45,211.65-87.45s155.12,31.06,211.65,87.45c56.53,56.4,87.67,131.38,87.67,211.13Z"/>
    </g>
  </g>
  <g id="mainL">
    <path class="st0" d="M372.55,449.94c13.95-13.95,63-54.96,79.81-70.33,32.37-29.58,56.15-68.37,49.67-106.05-11.88-69.06-101.33-107.76-154.45-90.18,63.64,27.66,113.58,69.48,65,127.01,0,0-24.08,37.11-39,32-11.04-3.78,45.78-85.61,31-77-180.54,92.08-147.91,302.32-21.43,349.75-26.79-10.05-70.91-104.91-10.6-165.21Z"/>
  </g>
  <g id="mainC">
    <path class="st0" d="M599.57,321.4c-2.17-42.39-7.12-70.16-28.88-112.02-19.53-37.55-73.15-90.53-83.58-111.7-24.81-50.36,19.37-67.44,35.82-69.59-57.91,6.6-75.45,62.11-46.59,113.2,50.82,89.94,87.79,180.94-26.78,270.7-54.14,42.42-83.09,75.58-87.07,113.3-5.67,53.72,30.64,112.53,99.09,116.11-103.82-112.71,147.61-132.3,137.98-320Z"/>
    <path class="st0" d="M599.57,321.4c-2.17-42.39-7.12-70.16-28.88-112.02-19.53-37.55-73.15-90.53-83.58-111.7-24.81-50.36,19.37-67.44,35.82-69.59-57.91,6.6-75.45,62.11-46.59,113.2,50.82,89.94,87.79,180.94-26.78,270.7-54.14,42.42-83.09,75.58-87.07,113.3-5.67,53.72,30.64,112.53,99.09,116.11-103.82-112.71,147.61-132.3,137.98-320Z"/>
  </g>
  <g id="mainR">
    <path class="st0" d="M720.27,358.4c-10.82-26.48-28.44-49.7-54.14-74.23-24.56-23.44-39.63-41.86-49.12-60.28-7.87-15.29-8.37-30.7-8.37-30.7,0,0-5.13,9.86-3.91,26.23,1.67,22.33,6.97,33.36,11.16,42.98,9.49,21.77,20.65,42.42,34.6,62.51,13.95,20.09,31.8,49.81,36.84,83.16,4.47,29.58-3.75,85.6-20.09,111.63-30.14,48-86.51,66.98-88.19,60.84-1.67-6.14,10.6-13.95,17.86-19.53,7.26-5.58,54.14-37.4,64.19-92.09,6.45-35.11-.56-64.19-13.95-90.42-13.4-26.23-30.14-44.65-30.14-44.65,0,0,1.67,16.74,1.12,26.23-.56,9.49-.56,24-5.58,44.09-5.02,20.09-21.77,45.77-37.4,64.74-15.63,18.98-52,49.17-75.82,73.67-22.24,22.88-44.65,25.67-38.6,60.84,5.25,30.5,19.62,39.63,19.62,39.63,0,0,7.74,2.41,18.33,1.67,48-3.35,121.12-11.72,179.72-79.81,41-47.64,73.12-130.05,41.86-206.51Z"/>
  </g>
  <g id="L_flap1">
    <path class="st0" d="M222.41,478.4s-31.51,61.88,18.98,104.37c35.81,30.14,83.26,33.83,86.37,33.5.04,0,.05-.05.01-.07-1.68-.75-26.67-8.88-60.16-51.3-28.3-35.85-45.21-86.51-45.21-86.51Z"/>
  </g>
  <g id="L_fllap2">
    <path class="st0" d="M246.4,306.01s-1.5.53-.69,9.68c2.68,30.01-26.81,52.91-24.33,94.06,1.26,20.85,10.69,35.6,19.17,52.63,5.78,11.62,20.65,26.14,20.65,26.14,0,0-10.58-24.83-10.79-45.28-.41-39.7,4.47-27.91,17.86-82.6,5.08-20.75-7.48-34.29-13.67-44.94s-8.19-9.68-8.19-9.68Z"/>
  </g>
  <g id="L_flap3">
    <path class="st0" d="M291.71,329.38s-1.76-5.58,7.17-27.91c8.34-20.85,23.5-34.51,39.72-52.47,31.26-34.6-4.47-50.23-4.47-50.23.09-.16,19.66,10.74,28.38,18.98,31.9,30.14-.47,27.91-44,79.26-12.02,14.18-26.79,32.37-26.79,32.37Z"/>
  </g>
  <g id="R_flap1">
    <path class="st0" d="M672.82,615.15s20.2-10.4,32.37-22.33c55.81-54.7,44.18-97.12,44.18-97.12,0,0,25.03,27.91,8.28,72.56-5.83,15.54-18.33,29.02-48,40.19-22.82,8.58-36.84,6.7-36.84,6.7Z"/>
  </g>
  <g id="R_fllap2">
    <path class="st0" d="M754.87,450.5s6.74-16.52,8.37-27.91c1.67-11.72,4.65-20.47,4.09-28.84-.83-12.45-8.93-22.33-8.93-22.33,0,0,17.12,15.93,20.84,29.4,4.47,16.19,2.42,25.67-5.95,34.6-8.05,8.59-18.42,15.07-18.42,15.07Z"/>
  </g>
  <g id="R_flap3">
    <path class="st0" d="M575.71,110.59s36.28,63.34,78.14,90.42c56.93,36.84,73.13,107.47,71.44,111.63,0,0,0-19.26,2.51-54.42,2.51-35.16-11.72-57.77-30.14-74.51-18.42-16.74-43.98-31.05-57.77-36-32.65-11.72-61.24-35.11-64.19-37.12Z"/>
  </g>
  <g id="embers">
    <g id="Layer_18">
      <path class="st0" d="M754.31,312.64c8.37,7.81.23,12.84-2.23,12.84s-8.37-.4-8.37-5.02-1.91-10.05.56-10.05,1.63-5.62,10.05,2.23Z"/>
    </g>
    <g id="Layer_17">
      <path class="st0" d="M403.24,126.78c0-3.7-3.94-6.89-10.6-4.47-12.28,4.47-11.95,9.7-11.72,13.4.56,8.93,10.07,5.73,16.74,3.35,7.81-2.79,5.58-8.58,5.58-12.28Z"/>
    </g>
    <g id="Layer_16">
      <path class="st0" d="M275.99,246.22c0,5.7-8.18,8.93-11.72,8.93s-8.37-3.23-8.37-8.93,6.5-11.16,10.05-11.16,10.05,5.46,10.05,11.16Z"/>
    </g>
    <g id="Layer_15">
      <path class="st0" d="M220.17,260.17c0,4.78-5.24,12-10.33,12s-9.21-3.87-9.21-8.65,4.12-8.65,9.21-8.65,10.33.52,10.33,5.3Z"/>
    </g>
    <g id="Layer_14">
      <path class="st0" d="M460.73,165.01c0,5.09-3.31,4.74-6.7,4.74s-8.37-4.4-8.37-9.49,1.07-7.81,4.47-7.81,10.6,7.47,10.6,12.56Z"/>
    </g>
  </g>
</svg>